<?xml version="1.0" encoding="UTF-8" standalone="no"?><!DOCTYPE svg PUBLIC "-//W3C//DTD SVG 1.1//EN" "http://www.w3.org/Graphics/SVG/1.1/DTD/svg11.dtd"><svg width="100%" height="100%" viewBox="0 0 41 40" version="1.1" xmlns="http://www.w3.org/2000/svg" xmlns:xlink="http://www.w3.org/1999/xlink" xml:space="preserve" xmlns:serif="http://www.serif.com/" style="fill-rule:evenodd;clip-rule:evenodd;stroke-linejoin:round;stroke-miterlimit:2;"><g><path d="M0.02,34.918c-0.014,-0.107 -0.02,-0.215 -0.02,-0.323l0,-29.903c0,-0.22 0.03,-0.435 0.084,-0.637c0.427,-2.3 2.443,-3.99 4.782,-4.01c0.718,-0.004 1.428,0.15 2.08,0.451l13.159,6.839l-0.01,-0.003c0.045,-0.027 0.348,-0.227 0.466,-0.29l12.645,-6.59c0.651,-0.302 1.362,-0.457 2.08,-0.452c2.539,0.016 4.617,1.973 4.846,4.459c0.013,0.107 0.02,0.214 0.02,0.324l0,29.901c0,0.22 -0.029,0.437 -0.084,0.64c-0.422,2.269 -2.4,3.993 -4.782,4.007c-0.718,0.006 -1.428,-0.147 -2.08,-0.449l-13.15,-6.834c-0.043,0.026 -0.348,0.224 -0.465,0.288l-12.645,6.589c-0.651,0.302 -1.362,0.456 -2.08,0.451c-2.538,-0.016 -4.615,-1.971 -4.845,-4.458m6.269,-1.216l11.356,-5.934c1.74,-1.098 2.3,-3.412 1.255,-5.184l-0.002,0l0.01,-0.006l-1.671,-2.96c-0.873,-1.342 -1.36,-2.899 -1.407,-4.499c-0.044,-1.393 0.246,-2.777 0.845,-4.036l0.017,0.01l-10.405,-5.37c-0.12,-0.048 -0.247,-0.072 -0.376,-0.072c-0.557,-0 -1.015,0.457 -1.016,1.014l0,3.215l-0.002,0l0,19.664l0.002,0l0,3.217c0.001,0.556 0.459,1.013 1.015,1.013c0.13,0 0.258,-0.025 0.378,-0.073m28.967,-0.988l0,-3.216l0.002,0l0,-19.662l-0.002,0l0,-3.216c0,-0.001 0,-0.002 0,-0.002c0,-0.557 -0.458,-1.014 -1.014,-1.014c-0.13,-0 -0.259,0.025 -0.379,0.073l-11.357,5.934c-1.739,1.099 -2.299,3.412 -1.254,5.184l0.002,0l-0.011,0.004l1.67,2.961c0.874,1.342 1.361,2.899 1.407,4.5c0.045,1.394 -0.245,2.778 -0.845,4.037l10.388,5.36c0.117,0.047 0.245,0.075 0.38,0.075c0.558,0 1.013,-0.457 1.013,-1.018" style="fill:#4286cc;"/></g></svg>
